<?xml version="1.0" encoding="utf-8"?>
<!-- Generator: Adobe Illustrator 26.1.0, SVG Export Plug-In . SVG Version: 6.00 Build 0)  -->
<svg version="1.1" id="Layer_1" xmlns="http://www.w3.org/2000/svg" xmlns:xlink="http://www.w3.org/1999/xlink" x="0px" y="0px"
	 viewBox="0 0 24 24" style="enable-background:new 0 0 24 24;" xml:space="preserve">
<style type="text/css">
	.st0{fill:#FF0040;}
</style>
<path class="st0" d="M10.9,6.1C11.3,6,11.6,6,12,6c3.2,0,6.2,2.3,7.9,6c-0.3,0.6-0.6,1.1-0.9,1.6c-0.1,0.2-0.2,0.4-0.2,0.6
	c0,0.6,0.5,1,1,1c0.3,0,0.7-0.2,0.8-0.5c0.5-0.7,0.9-1.5,1.2-2.3c0.1-0.3,0.1-0.5,0-0.8C19.9,6.9,16.1,4,12,4c-0.5,0-0.9,0-1.4,0.1
	C10,4.2,9.7,4.7,9.8,5.3S10.4,6.2,10.9,6.1L10.9,6.1z M3.7,2.3c-0.4-0.4-1-0.4-1.4,0s-0.4,1,0,1.4l3.1,3.1c-1.4,1.4-2.5,3-3.3,4.8
	c-0.1,0.3-0.1,0.5,0,0.8c2,4.7,5.8,7.6,9.9,7.6c1.8,0,3.6-0.5,5-1.5l3.2,3.2c0.4,0.4,1,0.4,1.4,0c0,0,0,0,0,0c0.4-0.4,0.4-1,0-1.4
	c0,0,0,0,0,0L3.7,2.3z M10.1,11.5l2.4,2.4C12.4,14,12.2,14,12,14c-1.1,0-2-0.9-2-2C10,11.8,10,11.6,10.1,11.5z M12,18
	c-3.2,0-6.2-2.3-7.9-6c0.6-1.4,1.6-2.7,2.7-3.8L8.6,10c-1.1,1.9-0.4,4.4,1.6,5.4c1.2,0.7,2.6,0.7,3.8,0l1.6,1.6
	C14.5,17.6,13.3,18,12,18z"/>
</svg>
