<?xml version="1.0" encoding="utf-8"?>
<!-- Generator: Adobe Illustrator 26.1.0, SVG Export Plug-In . SVG Version: 6.00 Build 0)  -->
<svg version="1.1" id="Layer_1" xmlns="http://www.w3.org/2000/svg" xmlns:xlink="http://www.w3.org/1999/xlink" x="0px" y="0px"
	 viewBox="0 0 24 24" style="enable-background:new 0 0 24 24;" xml:space="preserve">
<style type="text/css">
	.st0{fill:#0DF2C9;}
	.st1{display:none;}
	.st2{display:inline;}
	.st3{fill:#EEEEEE;}
	.st4{display:none;fill:#EEEEEE;}
</style>
<path class="st0" d="M16,2c-1.7,0-3,1.3-3,3v14c0,1.7,1.3,3,3,3s3-1.3,3-3V5C19,3.3,17.7,2,16,2z M17,19c0,0.6-0.4,1-1,1s-1-0.4-1-1
	V5c0-0.6,0.4-1,1-1s1,0.4,1,1V19z M8,2C6.3,2,5,3.3,5,5v14c0,1.7,1.3,3,3,3s3-1.3,3-3V5C11,3.3,9.7,2,8,2z M9,19c0,0.6-0.4,1-1,1
	s-1-0.4-1-1V5c0-0.6,0.4-1,1-1s1,0.4,1,1V19z"/>
<g class="st1">
	<g class="st2">
		<g>
			<path class="st3" d="M11.4,22c-0.4,0-0.7-0.1-1-0.4c-0.6-0.6-0.6-1.5,0-2l7.4-7.4l-7.7-7.7c-0.6-0.6-0.6-1.5,0-2
				c0.6-0.6,1.5-0.6,2,0l8.7,8.7c0.6,0.6,0.6,1.5,0,2l-8.4,8.4C12.2,21.9,11.8,22,11.4,22z"/>
		</g>
		<g>
			<path class="st3" d="M4.4,22c-0.4,0-0.7-0.1-1-0.4c-0.6-0.6-0.6-1.5,0-2l7.4-7.4L3.1,4.4c-0.6-0.6-0.6-1.5,0-2
				c0.6-0.6,1.5-0.6,2,0l8.7,8.7c0.6,0.6,0.6,1.5,0,2l-8.4,8.4C5.1,21.9,4.8,22,4.4,22z"/>
		</g>
	</g>
</g>
<g class="st1">
	<g class="st2">
		<g>
			<path class="st3" d="M12.6,22c0.4,0,0.7-0.1,1-0.4c0.6-0.6,0.6-1.5,0-2l-7.4-7.4l7.7-7.7c0.6-0.6,0.6-1.5,0-2
				c-0.6-0.6-1.5-0.6-2,0l-8.7,8.7c-0.6,0.6-0.6,1.5,0,2l8.4,8.4C11.8,21.9,12.2,22,12.6,22z"/>
		</g>
		<g>
			<path class="st3" d="M19.6,22c0.4,0,0.7-0.1,1-0.4c0.6-0.6,0.6-1.5,0-2l-7.4-7.4l7.7-7.7c0.6-0.6,0.6-1.5,0-2
				c-0.6-0.6-1.5-0.6-2,0l-8.7,8.7c-0.6,0.6-0.6,1.5,0,2l8.4,8.4C18.9,21.9,19.2,22,19.6,22z"/>
		</g>
	</g>
</g>
<g class="st1">
	<g class="st2">
		<g>
			<path class="st3" d="M11.4,22c-0.4,0-0.7-0.1-1-0.4c-0.6-0.6-0.6-1.5,0-2l7.4-7.4l-7.7-7.7c-0.6-0.6-0.6-1.5,0-2
				c0.6-0.6,1.5-0.6,2,0l8.7,8.7c0.6,0.6,0.6,1.5,0,2l-8.4,8.4C12.2,21.9,11.8,22,11.4,22z"/>
		</g>
		<g>
			<path class="st3" d="M4.4,22c-0.4,0-0.7-0.1-1-0.4c-0.6-0.6-0.6-1.5,0-2l7.4-7.4L3.1,4.4c-0.6-0.6-0.6-1.5,0-2
				c0.6-0.6,1.5-0.6,2,0l8.7,8.7c0.6,0.6,0.6,1.5,0,2l-8.4,8.4C5.1,21.9,4.8,22,4.4,22z"/>
		</g>
	</g>
</g>
<path class="st4" d="M19.3,12.8L6.4,21.3c-0.7,0.4-1.5,0-1.5-0.8v-17c0-0.8,0.9-1.3,1.5-0.8l12.9,8.5C19.9,11.6,19.9,12.4,19.3,12.8
	z"/>
<path class="st4" d="M18.1,21.1H5.9c-1.7,0-3-1.3-3-3V5.9c0-1.7,1.3-3,3-3h12.2c1.7,0,3,1.3,3,3v12.2C21.1,19.8,19.8,21.1,18.1,21.1
	z"/>
<path class="st4" d="M19.9,15.5h-4.5c-0.6,0-1,0.4-1,1s0.4,1,1,1h2.4c-3.1,3.2-8.1,3.3-11.3,0.2C4.9,16.3,4,14.2,4,12
	c0-0.6-0.4-1-1-1s-1,0.4-1,1c0,5.5,4.5,10,10,10c2.6,0,5-1,6.9-2.7V21c0,0.6,0.4,1,1,1s1-0.4,1-1v-4.5C20.9,16,20.4,15.5,19.9,15.5z
	 M12,2C9.4,2,7,3,5.1,4.8V3c0-0.6-0.4-1-1-1s-1,0.4-1,1v4.5c0,0.6,0.4,1,1,1h4.5c0.6,0,1-0.4,1-1s-0.4-1-1-1H6.2
	c3.1-3.2,8.1-3.3,11.3-0.2C19.1,7.8,20,9.8,20,12c0,0.6,0.4,1,1,1s1-0.4,1-1C22,6.5,17.5,2,12,2z"/>
<path class="st4" d="M14.5,12.3l-4,2.6c-0.3,0.2-0.6,0-0.6-0.3V9.4c0-0.3,0.4-0.5,0.6-0.3l4,2.6C14.7,11.8,14.7,12.2,14.5,12.3z"/>
</svg>
